name rise30.9205peak61.366fall85.3838.mot
datacolumns 19
datarows 35
range 13.08328800000000 13.13995400000000
endheader
time	ground_force1_vx	ground_force1_vy	ground_force1_vz	ground_force1_px	ground_force1_py	ground_force1_pz	ground_force2_vx	ground_force2_vy	ground_force2_vz	ground_force2_px	ground_force2_py	ground_force2_pz	ground_torque1_x	ground_torque1_y	ground_torque1_z	ground_torque2_x	ground_torque2_y	ground_torque2_z	
13.08328800000000	-63.43789600000000	830.90609099999995	59.67252400000000	0.10518000000000	0.00000000000000	0.12009900000000	-2.60508100000000	10.72462100000000	4.46069900000000	0.00000000000000	0.00000000000000	0.00000000000000	0.00000000000000	24.83289900000000	0.00000000000000	0.00000000000000	1.69110900000000	0.00000000000000	
13.08495600000000	-63.64261900000000	829.43186800000001	59.57031500000000	0.10470000000000	0.00000000000000	0.12012300000000	-3.45637100000000	15.05832700000000	6.02990000000000	0.00000000000000	0.00000000000000	0.00000000000000	0.00000000000000	24.75543900000000	0.00000000000000	0.00000000000000	2.29002000000000	0.00000000000000	
13.08662500000000	-63.85704800000000	827.82589599999994	59.44815200000000	0.10423000000000	0.00000000000000	0.12014500000000	-4.34581600000000	19.87287200000000	7.70934000000000	0.00000000000000	0.00000000000000	0.00000000000000	0.00000000000000	24.67924000000000	0.00000000000000	0.00000000000000	2.93239800000000	0.00000000000000	
13.08828200000000	-64.08219099999999	826.08693100000005	59.30578900000000	0.10376900000000	0.00000000000000	0.12016400000000	-5.23923900000000	25.06634800000000	9.44640500000000	0.36859400000000	0.00000000000000	-0.03363700000000	0.00000000000000	24.60448500000000	0.00000000000000	0.00000000000000	6.90419900000000	0.00000000000000	
13.08995600000000	-64.31899900000001	824.21380299999998	59.14299600000000	0.10331500000000	0.00000000000000	0.12018000000000	-6.10063600000000	30.52332600000000	11.18465800000000	0.37349400000000	0.00000000000000	-0.03475800000000	0.00000000000000	24.53133900000000	0.00000000000000	0.00000000000000	8.23263200000000	0.00000000000000	
13.09162700000000	-64.56836699999999	822.20541100000003	58.95956500000000	0.10286700000000	0.00000000000000	0.12019400000000	-6.89480100000000	36.12474900000000	12.86820000000000	0.37797700000000	0.00000000000000	-0.03584600000000	0.00000000000000	24.45995300000000	0.00000000000000	0.00000000000000	9.53435200000000	0.00000000000000	
13.09328000000000	-64.83112199999999	820.06072200000006	58.75530500000000	0.10242400000000	0.00000000000000	0.12020500000000	-7.58982100000000	41.75780000000000	14.44584800000000	0.38207300000000	0.00000000000000	-0.03690200000000	0.00000000000000	24.39045500000000	0.00000000000000	0.00000000000000	10.76960300000000	0.00000000000000	
13.09494900000000	-65.10801700000000	817.77877000000001	58.53004600000000	0.10198500000000	0.00000000000000	0.12021300000000	-8.15909900000000	47.32445600000000	15.87460000000000	0.38580700000000	0.00000000000000	-0.03792800000000	0.00000000000000	24.32295500000000	0.00000000000000	0.00000000000000	11.90428900000000	0.00000000000000	
13.09664400000000	-65.39973200000000	815.35864800000002	58.28363700000000	0.10154800000000	0.00000000000000	0.12021800000000	-8.58273800000000	52.74781800000000	17.12204500000000	0.38920400000000	0.00000000000000	-0.03892700000000	0.00000000000000	24.25754400000000	0.00000000000000	0.00000000000000	12.91202300000000	0.00000000000000	
13.09828600000000	-65.70685800000000	812.79951200000005	58.01594700000000	0.10111200000000	0.00000000000000	0.12022000000000	-8.84819100000000	57.97581600000000	18.16756900000000	0.39228800000000	0.00000000000000	-0.03990000000000	0.00000000000000	24.19429200000000	0.00000000000000	0.00000000000000	13.77525100000000	0.00000000000000	
13.09995400000000	-66.02990200000001	810.10057300000005	57.72686500000000	0.10067600000000	0.00000000000000	0.12022000000000	-8.95022500000000	62.98229300000000	19.00241600000000	0.39508000000000	0.00000000000000	-0.04084800000000	0.00000000000000	24.13324700000000	0.00000000000000	0.00000000000000	14.48549400000000	0.00000000000000	
13.10163800000000	-66.36927400000000	807.26109499999995	57.41630100000000	0.10023800000000	0.00000000000000	0.12021600000000	-8.89030000000000	67.76576400000000	19.62876300000000	0.39760000000000	0.00000000000000	-0.04177200000000	0.00000000000000	24.07443700000000	0.00000000000000	0.00000000000000	15.04277800000000	0.00000000000000	
13.10328500000000	-66.72528500000000	804.28039699999999	57.08418400000000	0.09979700000000	0.00000000000000	0.12021000000000	-8.67551600000000	72.34634100000000	20.05805500000000	0.39986800000000	0.00000000000000	-0.04267300000000	0.00000000000000	24.01786900000000	0.00000000000000	0.00000000000000	15.45445600000000	0.00000000000000	
13.10494800000000	-67.09814400000000	801.15784299999996	56.73046600000000	0.09935200000000	0.00000000000000	0.12020000000000	-8.31727900000000	76.76138600000000	20.30885900000000	0.40190200000000	0.00000000000000	-0.04355200000000	0.00000000000000	23.96352700000000	0.00000000000000	0.00000000000000	15.73362300000000	0.00000000000000	
13.10662500000000	-67.48795200000001	797.89284899999996	56.35512000000000	0.09890200000000	0.00000000000000	0.12018700000000	-7.82985900000000	81.06048500000000	20.40449600000000	0.40371700000000	0.00000000000000	-0.04441000000000	0.00000000000000	23.91137500000000	0.00000000000000	0.00000000000000	15.89731400000000	0.00000000000000	
13.10828800000000	-67.89470000000000	794.48487100000000	55.95813900000000	0.09844400000000	0.00000000000000	0.12017100000000	-7.22896200000000	85.30026599999999	20.37069800000000	0.40533100000000	0.00000000000000	-0.04524600000000	0.00000000000000	23.86135400000000	0.00000000000000	0.00000000000000	15.96469000000000	0.00000000000000	
13.10994800000000	-68.31826200000000	790.93341299999997	55.53954000000000	0.09797900000000	0.00000000000000	0.12015200000000	-6.53044400000000	89.53950600000000	20.23345500000000	0.40675800000000	0.00000000000000	-0.04606200000000	0.00000000000000	23.81338500000000	0.00000000000000	0.00000000000000	15.95535900000000	0.00000000000000	
13.11162000000000	-68.75839499999999	787.23801900000001	55.09936300000000	0.09750500000000	0.00000000000000	0.12012900000000	-5.74922900000000	93.83487800000000	20.01721900000000	0.40801300000000	0.00000000000000	-0.04685700000000	0.00000000000000	23.76736700000000	0.00000000000000	0.00000000000000	15.88794300000000	0.00000000000000	
13.11328400000000	-69.21473899999999	783.39827300000002	54.63766800000000	0.09702000000000	0.00000000000000	0.12010300000000	-4.89850200000000	98.23755500000000	19.74351100000000	0.40910700000000	0.00000000000000	-0.04763200000000	0.00000000000000	23.72317600000000	0.00000000000000	0.00000000000000	15.77897100000000	0.00000000000000	
13.11494700000000	-69.68680900000000	779.41380000000004	54.15454300000000	0.09652400000000	0.00000000000000	0.12007400000000	-3.98916500000000	102.79077599999999	19.43000500000000	0.41005500000000	0.00000000000000	-0.04838800000000	0.00000000000000	23.68067100000000	0.00000000000000	0.00000000000000	15.64212500000000	0.00000000000000	
13.11663100000000	-70.17399600000000	775.28426400000001	53.65009800000000	0.09601500000000	0.00000000000000	0.12004100000000	-3.02957600000000	107.52840399999999	19.09003900000000	0.41086800000000	0.00000000000000	-0.04912500000000	0.00000000000000	23.63968800000000	0.00000000000000	0.00000000000000	15.48782700000000	0.00000000000000	
13.11828600000000	-70.67556999999999	771.00936899999999	53.12446800000000	0.09549400000000	0.00000000000000	0.12000500000000	-2.02552200000000	112.47439199999999	18.73254800000000	0.41155700000000	0.00000000000000	-0.04984200000000	0.00000000000000	23.60004400000000	0.00000000000000	0.00000000000000	15.32315300000000	0.00000000000000	
13.11995200000000	-71.19067200000001	766.58885399999997	52.57781300000000	0.09495800000000	0.00000000000000	0.11996500000000	-0.98039400000000	117.64304300000001	18.36231700000000	0.41213200000000	0.00000000000000	-0.05053900000000	0.00000000000000	23.56153500000000	0.00000000000000	0.00000000000000	15.15201300000000	0.00000000000000	
13.12163800000000	-71.71832100000000	762.02250300000003	52.01032200000000	0.09440800000000	0.00000000000000	0.11992100000000	0.10448600000000	123.03989000000000	17.98050000000000	0.41260400000000	0.00000000000000	-0.05121800000000	0.00000000000000	23.52393900000000	0.00000000000000	0.00000000000000	14.97552400000000	0.00000000000000	
13.12328300000000	-72.25741200000000	757.31013399999995	51.42220700000000	0.09384200000000	0.00000000000000	0.11987400000000	1.22943900000000	128.66302400000001	17.58531000000000	0.41298100000000	0.00000000000000	-0.05187800000000	0.00000000000000	23.48701800000000	0.00000000000000	0.00000000000000	14.79253300000000	0.00000000000000	
13.12495400000000	-72.80671500000000	752.45160799999996	50.81371200000000	0.09326000000000	0.00000000000000	0.11982300000000	2.39596200000000	134.50467900000001	17.17278900000000	0.41327300000000	0.00000000000000	-0.05251900000000	0.00000000000000	23.45051300000000	0.00000000000000	0.00000000000000	14.60020600000000	0.00000000000000	
13.12661600000000	-73.36488199999999	747.44682799999998	50.18510500000000	0.09266200000000	0.00000000000000	0.11976900000000	3.60624400000000	140.55291500000001	16.73759700000000	0.41348800000000	0.00000000000000	-0.05314200000000	0.00000000000000	23.41415100000000	0.00000000000000	0.00000000000000	14.39462500000000	0.00000000000000	
13.12828800000000	-73.93044399999999	742.29574200000002	49.53668700000000	0.09204700000000	0.00000000000000	0.11971100000000	4.86273100000000	146.79324900000000	16.27375600000000	0.41363300000000	0.00000000000000	-0.05374600000000	0.00000000000000	23.37764200000000	0.00000000000000	0.00000000000000	14.17136100000000	0.00000000000000	
13.12995200000000	-74.50181800000000	736.99834099999998	48.86878500000000	0.09141500000000	0.00000000000000	0.11964900000000	6.16773400000000	153.21012999999999	15.77530000000000	0.41371500000000	0.00000000000000	-0.05433100000000	0.00000000000000	23.34068100000000	0.00000000000000	0.00000000000000	13.92596900000000	0.00000000000000	
13.13164000000000	-75.07731099999999	731.55466899999999	48.18176000000000	0.09076500000000	0.00000000000000	0.11958300000000	7.52312200000000	159.78817300000000	15.23679700000000	0.41374100000000	0.00000000000000	-0.05489900000000	0.00000000000000	23.30294900000000	0.00000000000000	0.00000000000000	13.65439000000000	0.00000000000000	
13.13328900000000	-75.65512099999999	725.96482000000003	47.47600100000000	0.09009900000000	0.00000000000000	0.11951300000000	8.93010300000000	166.51311200000001	14.65374000000000	0.41371900000000	0.00000000000000	-0.05544700000000	0.00000000000000	23.26411500000000	0.00000000000000	0.00000000000000	13.35324600000000	0.00000000000000	
13.13494800000000	-76.23334500000000	720.22894599999995	46.75193100000000	0.08941500000000	0.00000000000000	0.11944000000000	10.38908100000000	173.37245200000001	14.02279900000000	0.41365200000000	0.00000000000000	-0.05597800000000	0.00000000000000	23.22383500000000	0.00000000000000	0.00000000000000	13.02003300000000	0.00000000000000	
13.13662500000000	-76.80998300000000	714.34726400000000	46.01000400000000	0.08871400000000	0.00000000000000	0.11936200000000	11.89959900000000	180.35584100000000	13.34193300000000	0.41354700000000	0.00000000000000	-0.05649100000000	0.00000000000000	23.18175500000000	0.00000000000000	0.00000000000000	12.65320500000000	0.00000000000000	
13.13828900000000	-77.38294600000000	708.32005600000002	45.25070600000000	0.08799600000000	0.00000000000000	0.11928100000000	13.46034900000000	187.45517300000000	12.61039600000000	0.41340900000000	0.00000000000000	-0.05698700000000	0.00000000000000	23.13751100000000	0.00000000000000	0.00000000000000	12.25218000000000	0.00000000000000	
13.13995400000000	-77.95005900000000	702.14768300000003	44.47455800000000	0.08726200000000	0.00000000000000	0.11919500000000	15.06923500000000	194.66448800000001	11.82865300000000	0.41324300000000	0.00000000000000	-0.05746400000000	0.00000000000000	23.09073100000000	0.00000000000000	0.00000000000000	11.81726600000000	0.00000000000000	
